<svg xmlns="http://www.w3.org/2000/svg" xmlns:xlink="http://www.w3.org/1999/xlink" width="431" zoomAndPan="magnify" viewBox="0 0 323.25 125.999998" height="168" preserveAspectRatio="xMidYMid meet" version="1.0"><defs><g/><clipPath id="110d9be954"><path d="M 91 18 L 298.828125 18 L 298.828125 103.570312 L 91 103.570312 Z M 91 18 " clip-rule="nonzero"/></clipPath><clipPath id="0eba8e736c"><rect x="0" width="208" y="0" height="86"/></clipPath><clipPath id="47a7007979"><path d="M 174 0.132812 L 298.828125 0.132812 L 298.828125 33 L 174 33 Z M 174 0.132812 " clip-rule="nonzero"/></clipPath><clipPath id="2d5aaf962c"><rect x="0" width="125" y="0" height="33"/></clipPath><clipPath id="e265774e6d"><path d="M 0 1.695312 L 80.839844 1.695312 L 80.839844 82.535156 L 0 82.535156 Z M 0 1.695312 " clip-rule="nonzero"/></clipPath><clipPath id="15ae13a018"><path d="M 26.113281 9.519531 L 60.554688 9.519531 L 60.554688 67.261719 L 26.113281 67.261719 Z M 26.113281 9.519531 " clip-rule="nonzero"/></clipPath><clipPath id="d6c8e53a93"><path d="M 0.113281 0.519531 L 34.554688 0.519531 L 34.554688 58.261719 L 0.113281 58.261719 Z M 0.113281 0.519531 " clip-rule="nonzero"/></clipPath><clipPath id="15f8d31b8f"><rect x="0" width="35" y="0" height="59"/></clipPath><clipPath id="18be5fb5c8"><path d="M 10 24 L 75 24 L 75 65 L 10 65 Z M 10 24 " clip-rule="nonzero"/></clipPath><clipPath id="67fc6df56a"><path d="M 10.851562 63.832031 L 11.300781 24.335938 L 74.859375 25.0625 L 74.40625 64.558594 Z M 10.851562 63.832031 " clip-rule="nonzero"/></clipPath><clipPath id="1871c0be85"><path d="M 0.773438 0.316406 L 64.945312 0.316406 L 64.945312 40.78125 L 0.773438 40.78125 Z M 0.773438 0.316406 " clip-rule="nonzero"/></clipPath><clipPath id="7d405626cd"><path d="M 0.851562 39.832031 L 1.300781 0.335938 L 64.859375 1.0625 L 64.40625 40.558594 Z M 0.851562 39.832031 " clip-rule="nonzero"/></clipPath><clipPath id="071b3c1d2a"><rect x="0" width="65" y="0" height="41"/></clipPath><clipPath id="48bc26f037"><path d="M 13.585938 15.667969 L 67.480469 15.667969 L 67.480469 64.941406 L 13.585938 64.941406 Z M 13.585938 15.667969 " clip-rule="nonzero"/></clipPath><clipPath id="c92848beb6"><rect x="0" width="299" y="0" height="104"/></clipPath></defs><g transform="matrix(1, 0, 0, 1, 0, 6)"><g clip-path="url(#c92848beb6)"><g clip-path="url(#110d9be954)"><g transform="matrix(1, 0, 0, 1, 91, 18)"><g clip-path="url(#0eba8e736c)"><g fill="#111e1e" fill-opacity="1"><g transform="translate(1.320634, 63.035918)"><g><path d="M 12.421875 -45.734375 L 34.625 -45.734375 L 47.046875 0 L 34.625 0 L 32.34375 -9.140625 L 14.703125 -9.140625 L 12.421875 0 L 0 0 Z M 29.734375 -19.609375 L 25.8125 -34.625 L 21.234375 -34.625 L 17.3125 -19.609375 Z M 29.734375 -19.609375 "/></g></g></g><g fill="#111e1e" fill-opacity="1"><g transform="translate(44.439784, 63.035918)"><g><path d="M 18.625 0.984375 C 16.707031 0.984375 14.984375 0.804688 13.453125 0.453125 C 11.929688 0.109375 10.582031 -0.34375 9.40625 -0.90625 C 8.226562 -1.476562 7.210938 -2.125 6.359375 -2.84375 C 5.515625 -3.5625 4.789062 -4.289062 4.1875 -5.03125 C 2.75 -6.769531 1.789062 -8.796875 1.3125 -11.109375 L 12.421875 -11.109375 C 12.628906 -10.410156 13 -9.800781 13.53125 -9.28125 C 14.007812 -8.800781 14.648438 -8.382812 15.453125 -8.03125 C 16.253906 -7.6875 17.3125 -7.515625 18.625 -7.515625 C 20.28125 -7.515625 21.457031 -7.734375 22.15625 -8.171875 C 22.851562 -8.609375 23.203125 -9.148438 23.203125 -9.796875 C 23.203125 -10.535156 22.695312 -11.125 21.6875 -11.5625 C 20.6875 -12 19.4375 -12.390625 17.9375 -12.734375 C 16.4375 -13.085938 14.8125 -13.492188 13.0625 -13.953125 C 11.320312 -14.410156 9.703125 -15.0625 8.203125 -15.90625 C 6.703125 -16.757812 5.445312 -17.859375 4.4375 -19.203125 C 3.4375 -20.554688 2.9375 -22.320312 2.9375 -24.5 C 2.9375 -25.851562 3.238281 -27.148438 3.84375 -28.390625 C 4.457031 -29.628906 5.375 -30.738281 6.59375 -31.71875 C 7.8125 -32.695312 9.335938 -33.476562 11.171875 -34.0625 C 13.003906 -34.65625 15.160156 -34.953125 17.640625 -34.953125 C 19.472656 -34.953125 21.117188 -34.789062 22.578125 -34.46875 C 24.035156 -34.144531 25.328125 -33.707031 26.453125 -33.15625 C 27.585938 -32.613281 28.554688 -31.992188 29.359375 -31.296875 C 30.171875 -30.597656 30.882812 -29.898438 31.5 -29.203125 C 32.84375 -27.503906 33.78125 -25.613281 34.3125 -23.53125 L 23.53125 -23.53125 C 23.351562 -24.132812 23.046875 -24.675781 22.609375 -25.15625 C 22.265625 -25.550781 21.742188 -25.921875 21.046875 -26.265625 C 20.347656 -26.617188 19.429688 -26.796875 18.296875 -26.796875 C 16.992188 -26.796875 16.015625 -26.578125 15.359375 -26.140625 C 14.703125 -25.703125 14.375 -25.15625 14.375 -24.5 C 14.375 -23.71875 14.875 -23.128906 15.875 -22.734375 C 16.875 -22.347656 18.125 -21.988281 19.625 -21.65625 C 21.132812 -21.332031 22.757812 -20.953125 24.5 -20.515625 C 26.25 -20.078125 27.875 -19.457031 29.375 -18.65625 C 30.875 -17.851562 32.125 -16.773438 33.125 -15.421875 C 34.125 -14.066406 34.625 -12.300781 34.625 -10.125 C 34.625 -8.644531 34.296875 -7.238281 33.640625 -5.90625 C 32.992188 -4.582031 32.003906 -3.40625 30.671875 -2.375 C 29.347656 -1.351562 27.679688 -0.539062 25.671875 0.0625 C 23.671875 0.675781 21.320312 0.984375 18.625 0.984375 Z M 18.625 0.984375 "/></g></g></g><g fill="#111e1e" fill-opacity="1"><g transform="translate(76.77903, 63.035918)"><g><path d="M 3.265625 -45.734375 L 14.375 -45.734375 L 14.375 -21.890625 L 17.96875 -21.890625 L 25.484375 -33.984375 L 37.25 -33.984375 L 27.4375 -17.96875 L 38.21875 0 L 26.140625 0 L 18.625 -12.421875 L 14.375 -12.421875 L 14.375 0 L 3.265625 0 Z M 3.265625 -45.734375 "/></g></g></g><g fill="#111e1e" fill-opacity="1"><g transform="translate(111.078254, 63.035918)"><g><path d="M 7.84375 0.984375 C 6.1875 0.984375 4.789062 0.414062 3.65625 -0.71875 C 2.519531 -1.851562 1.953125 -3.25 1.953125 -4.90625 C 1.953125 -6.5625 2.519531 -7.953125 3.65625 -9.078125 C 4.789062 -10.210938 6.1875 -10.78125 7.84375 -10.78125 C 9.5 -10.78125 10.890625 -10.210938 12.015625 -9.078125 C 13.148438 -7.953125 13.71875 -6.5625 13.71875 -4.90625 C 13.71875 -3.25 13.148438 -1.851562 12.015625 -0.71875 C 10.890625 0.414062 9.5 0.984375 7.84375 0.984375 Z M 7.84375 0.984375 "/></g></g></g><g fill="#111e1e" fill-opacity="1"><g transform="translate(122.837675, 63.035918)"><g><path d="M 4.25 -45.734375 L 18.953125 -45.734375 L 34.953125 -16.984375 L 35.609375 -16.984375 L 34.625 -22.875 L 34.625 -45.734375 L 46.71875 -45.734375 L 46.71875 0 L 32.015625 0 L 16.015625 -28.75 L 15.359375 -28.75 L 16.34375 -22.875 L 16.34375 0 L 4.25 0 Z M 4.25 -45.734375 "/></g></g></g><g fill="#111e1e" fill-opacity="1"><g transform="translate(169.876784, 63.035918)"><g><path d="M 23.203125 -34.625 L 23.203125 -35.28125 L 0.984375 -35.28125 L 0.984375 -45.734375 L 36.59375 -45.734375 L 36.59375 -35.28125 L 19.28125 0 L 5.875 0 Z M 23.203125 -34.625 "/></g></g></g></g></g></g><g clip-path="url(#47a7007979)"><g transform="matrix(1, 0, 0, 1, 174, -0.000000000000003553)"><g clip-path="url(#2d5aaf962c)"><g fill="#111e1e" fill-opacity="1"><g transform="translate(0.93687, 23.088077)"><g><path d="M 10.328125 0.5 C 8.992188 0.5 7.765625 0.269531 6.640625 -0.1875 C 5.515625 -0.644531 4.546875 -1.289062 3.734375 -2.125 C 2.921875 -2.957031 2.28125 -3.9375 1.8125 -5.0625 C 1.351562 -6.195312 1.125 -7.445312 1.125 -8.8125 C 1.125 -10.164062 1.351562 -11.410156 1.8125 -12.546875 C 2.28125 -13.679688 2.921875 -14.660156 3.734375 -15.484375 C 4.546875 -16.316406 5.515625 -16.960938 6.640625 -17.421875 C 7.765625 -17.890625 8.992188 -18.125 10.328125 -18.125 C 11.210938 -18.125 12.015625 -18.03125 12.734375 -17.84375 C 13.453125 -17.65625 14.101562 -17.410156 14.6875 -17.109375 C 15.269531 -16.804688 15.773438 -16.460938 16.203125 -16.078125 C 16.640625 -15.691406 17.019531 -15.300781 17.34375 -14.90625 C 18.09375 -13.957031 18.644531 -12.890625 19 -11.703125 L 16.734375 -11.703125 C 16.421875 -12.492188 15.976562 -13.207031 15.40625 -13.84375 C 15.15625 -14.113281 14.867188 -14.375 14.546875 -14.625 C 14.234375 -14.875 13.863281 -15.097656 13.4375 -15.296875 C 13.019531 -15.503906 12.550781 -15.671875 12.03125 -15.796875 C 11.507812 -15.921875 10.941406 -15.984375 10.328125 -15.984375 C 9.316406 -15.984375 8.382812 -15.8125 7.53125 -15.46875 C 6.6875 -15.125 5.957031 -14.632812 5.34375 -14 C 4.738281 -13.375 4.257812 -12.617188 3.90625 -11.734375 C 3.5625 -10.859375 3.390625 -9.882812 3.390625 -8.8125 C 3.390625 -7.738281 3.5625 -6.757812 3.90625 -5.875 C 4.257812 -5 4.738281 -4.242188 5.34375 -3.609375 C 5.957031 -2.984375 6.6875 -2.5 7.53125 -2.15625 C 8.382812 -1.8125 9.316406 -1.640625 10.328125 -1.640625 C 10.960938 -1.640625 11.546875 -1.703125 12.078125 -1.828125 C 12.617188 -1.960938 13.101562 -2.140625 13.53125 -2.359375 C 13.957031 -2.578125 14.332031 -2.828125 14.65625 -3.109375 C 14.988281 -3.390625 15.28125 -3.671875 15.53125 -3.953125 C 16.101562 -4.617188 16.546875 -5.398438 16.859375 -6.296875 L 19.125 -6.296875 C 18.726562 -5.015625 18.144531 -3.878906 17.375 -2.890625 C 17.03125 -2.453125 16.632812 -2.03125 16.1875 -1.625 C 15.75 -1.226562 15.238281 -0.867188 14.65625 -0.546875 C 14.082031 -0.234375 13.429688 0.015625 12.703125 0.203125 C 11.984375 0.398438 11.191406 0.5 10.328125 0.5 Z M 10.328125 0.5 "/></g></g></g><g fill="#111e1e" fill-opacity="1"><g transform="translate(20.309164, 23.088077)"><g><path d="M 1.765625 -17.625 L 3.78125 -17.625 L 3.78125 -10.703125 L 3.796875 -10.703125 C 4.046875 -11.097656 4.375 -11.445312 4.78125 -11.75 C 5.113281 -12.019531 5.550781 -12.269531 6.09375 -12.5 C 6.644531 -12.726562 7.300781 -12.84375 8.0625 -12.84375 C 8.8125 -12.84375 9.492188 -12.71875 10.109375 -12.46875 C 10.734375 -12.226562 11.265625 -11.875 11.703125 -11.40625 C 12.140625 -10.9375 12.476562 -10.367188 12.71875 -9.703125 C 12.96875 -9.035156 13.09375 -8.273438 13.09375 -7.421875 L 13.09375 0 L 11.078125 0 L 11.078125 -7.296875 C 11.078125 -8.554688 10.757812 -9.476562 10.125 -10.0625 C 9.5 -10.65625 8.679688 -10.953125 7.671875 -10.953125 C 7.109375 -10.953125 6.585938 -10.851562 6.109375 -10.65625 C 5.628906 -10.46875 5.21875 -10.1875 4.875 -9.8125 C 4.53125 -9.445312 4.257812 -9.007812 4.0625 -8.5 C 3.875 -7.988281 3.78125 -7.421875 3.78125 -6.796875 L 3.78125 0 L 1.765625 0 Z M 1.765625 -17.625 "/></g></g></g><g fill="#111e1e" fill-opacity="1"><g transform="translate(34.146441, 23.088077)"><g><path d="M 7.046875 0.25 C 6.222656 0.25 5.445312 0.0859375 4.71875 -0.234375 C 3.988281 -0.566406 3.347656 -1.019531 2.796875 -1.59375 C 2.242188 -2.175781 1.804688 -2.867188 1.484375 -3.671875 C 1.160156 -4.484375 1 -5.359375 1 -6.296875 C 1 -7.234375 1.160156 -8.101562 1.484375 -8.90625 C 1.804688 -9.71875 2.242188 -10.410156 2.796875 -10.984375 C 3.347656 -11.566406 3.988281 -12.019531 4.71875 -12.34375 C 5.445312 -12.675781 6.222656 -12.84375 7.046875 -12.84375 C 7.867188 -12.84375 8.566406 -12.722656 9.140625 -12.484375 C 9.710938 -12.242188 10.175781 -11.984375 10.53125 -11.703125 C 10.894531 -11.421875 11.15625 -11.15625 11.3125 -10.90625 C 11.46875 -10.664062 11.546875 -10.546875 11.546875 -10.546875 L 11.578125 -10.546875 L 11.578125 -12.578125 L 13.59375 -12.578125 L 13.59375 0 L 11.578125 0 L 11.578125 -2.015625 L 11.546875 -2.015625 C 11.546875 -2.015625 11.46875 -1.890625 11.3125 -1.640625 C 11.15625 -1.398438 10.894531 -1.140625 10.53125 -0.859375 C 10.175781 -0.585938 9.710938 -0.332031 9.140625 -0.09375 C 8.566406 0.132812 7.867188 0.25 7.046875 0.25 Z M 7.296875 -1.640625 C 7.898438 -1.640625 8.460938 -1.75 8.984375 -1.96875 C 9.503906 -2.195312 9.957031 -2.515625 10.34375 -2.921875 C 10.726562 -3.335938 11.03125 -3.832031 11.25 -4.40625 C 11.46875 -4.976562 11.578125 -5.609375 11.578125 -6.296875 C 11.578125 -6.984375 11.46875 -7.609375 11.25 -8.171875 C 11.03125 -8.742188 10.726562 -9.234375 10.34375 -9.640625 C 9.957031 -10.054688 9.503906 -10.378906 8.984375 -10.609375 C 8.460938 -10.835938 7.898438 -10.953125 7.296875 -10.953125 C 6.691406 -10.953125 6.128906 -10.835938 5.609375 -10.609375 C 5.085938 -10.378906 4.632812 -10.054688 4.25 -9.640625 C 3.863281 -9.234375 3.5625 -8.742188 3.34375 -8.171875 C 3.125 -7.609375 3.015625 -6.984375 3.015625 -6.296875 C 3.015625 -5.609375 3.125 -4.976562 3.34375 -4.40625 C 3.5625 -3.832031 3.863281 -3.335938 4.25 -2.921875 C 4.632812 -2.515625 5.085938 -2.195312 5.609375 -1.96875 C 6.128906 -1.75 6.691406 -1.640625 7.296875 -1.640625 Z M 7.296875 -1.640625 "/></g></g></g><g fill="#111e1e" fill-opacity="1"><g transform="translate(48.738489, 23.088077)"><g><path d="M 2.265625 -10.703125 L 0.625 -10.703125 L 0.625 -12.578125 L 2.265625 -12.578125 L 2.265625 -15.359375 L 4.28125 -15.359375 L 4.28125 -12.578125 L 8.3125 -12.578125 L 8.3125 -10.703125 L 4.28125 -10.703125 L 4.28125 -1.890625 L 8.4375 -1.890625 L 8.4375 0 L 2.265625 0 Z M 2.265625 -10.703125 "/></g></g></g><g fill="#111e1e" fill-opacity="1"><g transform="translate(57.166545, 23.088077)"><g><path d="M 2.015625 -17.625 L 10.453125 -17.625 C 11.234375 -17.625 11.941406 -17.503906 12.578125 -17.265625 C 13.222656 -17.035156 13.765625 -16.710938 14.203125 -16.296875 C 14.648438 -15.890625 14.992188 -15.40625 15.234375 -14.84375 C 15.484375 -14.289062 15.609375 -13.707031 15.609375 -13.09375 C 15.609375 -12.332031 15.476562 -11.707031 15.21875 -11.21875 C 14.957031 -10.738281 14.664062 -10.351562 14.34375 -10.0625 C 13.976562 -9.726562 13.5625 -9.476562 13.09375 -9.3125 L 13.09375 -9.1875 C 13.695312 -9.050781 14.238281 -8.816406 14.71875 -8.484375 C 15.125 -8.203125 15.5 -7.78125 15.84375 -7.21875 C 16.1875 -6.664062 16.359375 -5.9375 16.359375 -5.03125 C 16.359375 -4.3125 16.226562 -3.644531 15.96875 -3.03125 C 15.707031 -2.414062 15.320312 -1.878906 14.8125 -1.421875 C 14.300781 -0.972656 13.664062 -0.625 12.90625 -0.375 C 12.15625 -0.125 11.296875 0 10.328125 0 L 2.015625 0 Z M 10.328125 -2.140625 C 11.578125 -2.140625 12.515625 -2.414062 13.140625 -2.96875 C 13.773438 -3.519531 14.09375 -4.207031 14.09375 -5.03125 C 14.09375 -5.925781 13.773438 -6.65625 13.140625 -7.21875 C 12.515625 -7.78125 11.578125 -8.0625 10.328125 -8.0625 L 4.28125 -8.0625 L 4.28125 -2.140625 Z M 10.328125 -10.1875 C 11.273438 -10.1875 12.015625 -10.4375 12.546875 -10.9375 C 13.078125 -11.445312 13.34375 -12.082031 13.34375 -12.84375 C 13.34375 -13.59375 13.078125 -14.21875 12.546875 -14.71875 C 12.015625 -15.226562 11.273438 -15.484375 10.328125 -15.484375 L 4.28125 -15.484375 L 4.28125 -10.1875 Z M 10.328125 -10.1875 "/></g></g></g><g fill="#111e1e" fill-opacity="1"><g transform="translate(74.022911, 23.088077)"><g><path d="M 7.546875 0.25 C 6.609375 0.25 5.734375 0.0859375 4.921875 -0.234375 C 4.117188 -0.566406 3.425781 -1.019531 2.84375 -1.59375 C 2.269531 -2.175781 1.816406 -2.867188 1.484375 -3.671875 C 1.160156 -4.484375 1 -5.359375 1 -6.296875 C 1 -7.234375 1.160156 -8.101562 1.484375 -8.90625 C 1.816406 -9.71875 2.269531 -10.410156 2.84375 -10.984375 C 3.425781 -11.566406 4.117188 -12.019531 4.921875 -12.34375 C 5.734375 -12.675781 6.609375 -12.84375 7.546875 -12.84375 C 8.492188 -12.84375 9.367188 -12.675781 10.171875 -12.34375 C 10.972656 -12.019531 11.660156 -11.566406 12.234375 -10.984375 C 12.816406 -10.410156 13.269531 -9.71875 13.59375 -8.90625 C 13.925781 -8.101562 14.09375 -7.234375 14.09375 -6.296875 C 14.09375 -5.359375 13.925781 -4.484375 13.59375 -3.671875 C 13.269531 -2.867188 12.816406 -2.175781 12.234375 -1.59375 C 11.660156 -1.019531 10.972656 -0.566406 10.171875 -0.234375 C 9.367188 0.0859375 8.492188 0.25 7.546875 0.25 Z M 7.546875 -1.640625 C 8.203125 -1.640625 8.804688 -1.75 9.359375 -1.96875 C 9.910156 -2.195312 10.390625 -2.515625 10.796875 -2.921875 C 11.203125 -3.335938 11.515625 -3.832031 11.734375 -4.40625 C 11.960938 -4.976562 12.078125 -5.609375 12.078125 -6.296875 C 12.078125 -6.984375 11.960938 -7.609375 11.734375 -8.171875 C 11.515625 -8.742188 11.203125 -9.234375 10.796875 -9.640625 C 10.390625 -10.054688 9.910156 -10.378906 9.359375 -10.609375 C 8.804688 -10.835938 8.203125 -10.953125 7.546875 -10.953125 C 6.890625 -10.953125 6.285156 -10.835938 5.734375 -10.609375 C 5.179688 -10.378906 4.703125 -10.054688 4.296875 -9.640625 C 3.898438 -9.234375 3.585938 -8.742188 3.359375 -8.171875 C 3.128906 -7.609375 3.015625 -6.984375 3.015625 -6.296875 C 3.015625 -5.609375 3.128906 -4.976562 3.359375 -4.40625 C 3.585938 -3.832031 3.898438 -3.335938 4.296875 -2.921875 C 4.703125 -2.515625 5.179688 -2.195312 5.734375 -1.96875 C 6.285156 -1.75 6.890625 -1.640625 7.546875 -1.640625 Z M 7.546875 -1.640625 "/></g></g></g><g fill="#111e1e" fill-opacity="1"><g transform="translate(88.363363, 23.088077)"><g><path d="M 2.265625 -10.703125 L 0.625 -10.703125 L 0.625 -12.578125 L 2.265625 -12.578125 L 2.265625 -15.359375 L 4.28125 -15.359375 L 4.28125 -12.578125 L 8.3125 -12.578125 L 8.3125 -10.703125 L 4.28125 -10.703125 L 4.28125 -1.890625 L 8.4375 -1.890625 L 8.4375 0 L 2.265625 0 Z M 2.265625 -10.703125 "/></g></g></g><g fill="#111e1e" fill-opacity="1"><g transform="translate(96.791419, 23.088077)"><g/></g></g><g fill="#111e1e" fill-opacity="1"><g transform="translate(102.325946, 23.088077)"><g><path d="M 5.03125 -17.625 L 11.953125 -17.625 L 16.484375 0 L 14.21875 0 L 12.84375 -5.15625 L 4.15625 -5.15625 L 2.765625 0 L 0.5 0 Z M 12.328125 -7.296875 L 10.1875 -15.484375 L 6.796875 -15.484375 L 4.65625 -7.296875 Z M 12.328125 -7.296875 "/></g></g></g><g fill="#111e1e" fill-opacity="1"><g transform="translate(118.553337, 23.088077)"><g><path d="M 2.015625 -17.625 L 4.28125 -17.625 L 4.28125 0 L 2.015625 0 Z M 2.015625 -17.625 "/></g></g></g></g></g></g><path fill="#084982" d="M 33.796875 51.371094 L 30.296875 51.371094 C 28.675781 51.371094 27.3125 50.003906 27.3125 48.382812 L 27.3125 42.152344 C 27.3125 40.53125 28.675781 39.164062 30.296875 39.164062 L 33.796875 39.164062 C 35.417969 39.164062 36.785156 40.53125 36.785156 42.152344 L 36.785156 48.382812 C 36.785156 50.003906 35.503906 51.371094 33.796875 51.371094 Z M 33.796875 51.371094 " fill-opacity="1" fill-rule="nonzero"/><path fill="#084982" d="M 48.734375 51.371094 L 45.234375 51.371094 C 43.613281 51.371094 42.246094 50.003906 42.246094 48.382812 L 42.246094 42.152344 C 42.246094 40.53125 43.613281 39.164062 45.234375 39.164062 L 48.734375 39.164062 C 50.355469 39.164062 51.722656 40.53125 51.722656 42.152344 L 51.722656 48.382812 C 51.722656 50.003906 50.355469 51.371094 48.734375 51.371094 Z M 48.734375 51.371094 " fill-opacity="1" fill-rule="nonzero"/><g clip-path="url(#e265774e6d)"><path fill="#084982" d="M 40.539062 1.695312 C 18.179688 1.695312 0 19.875 0 42.238281 C 0 64.597656 18.179688 82.777344 40.539062 82.777344 L 74.679688 82.777344 C 78.265625 82.777344 81.082031 79.875 81.082031 76.375 L 81.082031 42.238281 C 81.082031 19.875 62.902344 1.695312 40.539062 1.695312 Z M 68.960938 47.957031 C 68.960938 50.601562 66.828125 52.648438 64.265625 52.648438 L 62.132812 52.648438 C 61.964844 52.648438 61.707031 52.648438 61.535156 52.5625 C 58.121094 59.820312 50.015625 64.855469 40.539062 64.855469 C 31.066406 64.855469 22.957031 59.820312 19.628906 52.648438 L 17.496094 52.648438 C 14.851562 52.648438 12.800781 50.515625 12.800781 47.957031 L 12.800781 42.578125 C 12.800781 39.933594 14.9375 37.882812 17.496094 37.882812 L 19.542969 37.882812 C 22.445312 31.738281 28.933594 27.128906 36.785156 26.019531 L 36.785156 20.898438 C 35.164062 19.960938 34.054688 18.253906 34.054688 16.207031 C 34.054688 13.21875 36.445312 10.828125 39.429688 10.828125 C 42.417969 10.828125 44.808594 13.21875 44.808594 16.207031 C 44.808594 18.167969 43.699219 19.960938 42.078125 20.898438 L 42.078125 25.765625 C 50.867188 26.363281 58.207031 31.140625 61.367188 37.882812 C 61.535156 37.882812 61.792969 37.796875 61.964844 37.796875 L 64.097656 37.796875 C 66.742188 37.796875 68.789062 39.933594 68.789062 42.492188 L 68.789062 47.957031 Z M 68.960938 47.957031 " fill-opacity="1" fill-rule="nonzero"/></g><g clip-path="url(#15ae13a018)"><g transform="matrix(1, 0, 0, 1, 26, 9)"><g clip-path="url(#15f8d31b8f)"><g clip-path="url(#d6c8e53a93)"><path fill="#084982" d="M 0.113281 0.519531 L 34.554688 0.519531 L 34.554688 58.238281 L 0.113281 58.238281 Z M 0.113281 0.519531 " fill-opacity="1" fill-rule="nonzero"/></g></g></g></g><g clip-path="url(#18be5fb5c8)"><g clip-path="url(#67fc6df56a)"><g transform="matrix(1, 0, 0, 1, 10, 24)"><g clip-path="url(#071b3c1d2a)"><g clip-path="url(#1871c0be85)"><g clip-path="url(#7d405626cd)"><path fill="#084982" d="M 0.851562 39.832031 L 1.300781 0.335938 L 64.867188 1.0625 L 64.417969 40.558594 Z M 0.851562 39.832031 " fill-opacity="1" fill-rule="nonzero"/></g></g></g></g></g></g><path fill="#ffffff" d="M 54.09375 46.054688 C 54.074219 46.753906 53.800781 47.183594 53.226562 47.441406 C 52.640625 47.703125 52.1875 47.472656 51.816406 47.050781 C 51.605469 46.8125 51.46875 46.5 51.308594 46.21875 C 50.910156 45.511719 50.328125 45.019531 49.503906 45.027344 C 48.707031 45.03125 48.050781 45.40625 47.65625 46.148438 C 47.539062 46.371094 47.417969 46.597656 47.277344 46.804688 C 46.824219 47.46875 46.199219 47.691406 45.601562 47.417969 C 44.945312 47.117188 44.664062 46.488281 44.886719 45.707031 C 45.355469 44.039062 46.484375 42.996094 48.117188 42.507812 C 50.519531 41.789062 53.238281 43.222656 53.957031 45.550781 C 54.019531 45.742188 54.0625 45.9375 54.09375 46.054688 Z M 54.09375 46.054688 " fill-opacity="1" fill-rule="nonzero"/><g clip-path="url(#48bc26f037)"><path fill="#ffffff" d="M 67.476562 43.957031 C 67.460938 41.703125 66.191406 40.117188 63.980469 39.648438 C 63.5 39.546875 63.316406 39.335938 63.207031 38.90625 C 61.671875 32.886719 55.5625 28.914062 50.308594 29.042969 C 47.554688 29.109375 44.796875 29.054688 41.925781 29.054688 C 41.925781 27.335938 41.914062 25.71875 41.945312 24.101562 C 41.949219 23.925781 42.179688 23.691406 42.359375 23.589844 C 43.824219 22.789062 44.808594 21.144531 44.617188 19.675781 C 44.375 17.808594 43.402344 16.472656 41.585938 15.875 C 41.238281 15.761719 40.886719 15.699219 40.539062 15.6875 C 40.191406 15.699219 39.839844 15.761719 39.488281 15.875 C 37.671875 16.472656 36.703125 17.808594 36.460938 19.675781 C 36.269531 21.144531 37.253906 22.789062 38.714844 23.589844 C 38.898438 23.691406 39.128906 23.925781 39.132812 24.101562 C 39.164062 25.71875 39.148438 27.335938 39.148438 29.054688 C 36.28125 29.054688 33.523438 29.109375 30.765625 29.042969 C 25.515625 28.914062 19.40625 32.886719 17.871094 38.90625 C 17.761719 39.335938 17.578125 39.546875 17.097656 39.648438 C 14.886719 40.117188 13.617188 41.703125 13.601562 43.957031 C 13.585938 45.804688 13.589844 47.65625 13.613281 49.503906 C 13.640625 51.53125 14.953125 53.207031 16.929688 53.691406 C 17.425781 53.8125 17.621094 54.027344 17.734375 54.511719 C 19.140625 60.621094 24.785156 65.105469 31.042969 65.109375 C 34.207031 65.109375 37.375 65.113281 40.539062 65.113281 C 43.703125 65.113281 46.867188 65.109375 50.035156 65.109375 C 56.289062 65.105469 61.9375 60.621094 63.34375 54.511719 C 63.457031 54.027344 63.652344 53.8125 64.144531 53.691406 C 66.125 53.207031 67.4375 51.53125 67.460938 49.503906 C 67.484375 47.65625 67.492188 45.804688 67.476562 43.957031 Z M 60.902344 50.613281 C 60.875 51.714844 60.734375 52.839844 60.457031 53.90625 C 59.246094 58.558594 55.386719 61.824219 50.59375 62.066406 C 47.25 62.234375 43.890625 62.101562 40.539062 62.097656 C 37.1875 62.101562 33.828125 62.234375 30.480469 62.066406 C 25.691406 61.824219 21.832031 58.558594 20.621094 53.90625 C 20.34375 52.839844 20.203125 51.714844 20.175781 50.613281 C 20.109375 48.109375 20.140625 45.597656 20.160156 43.089844 C 20.207031 36.78125 25.042969 31.984375 31.351562 31.976562 C 34.414062 31.972656 37.476562 31.96875 40.539062 31.96875 C 43.601562 31.96875 46.664062 31.972656 49.726562 31.976562 C 56.035156 31.984375 60.871094 36.78125 60.917969 43.089844 C 60.9375 45.597656 60.964844 48.109375 60.902344 50.613281 Z M 60.902344 50.613281 " fill-opacity="1" fill-rule="nonzero"/></g><path fill="#ffffff" d="M 46.953125 52.402344 C 46.351562 52.140625 45.675781 52.34375 45.203125 52.925781 C 45.171875 52.964844 45.140625 53.003906 45.113281 53.046875 C 44.191406 54.582031 42.402344 55.476562 40.539062 55.519531 C 38.675781 55.476562 36.882812 54.582031 35.964844 53.046875 C 35.9375 53.003906 35.902344 52.964844 35.871094 52.925781 C 35.402344 52.34375 34.722656 52.140625 34.125 52.402344 C 33.503906 52.671875 33.144531 53.367188 33.386719 54.117188 C 33.554688 54.625 33.855469 55.125 34.210938 55.53125 C 35.890625 57.445312 38.066406 58.265625 40.539062 58.347656 C 43.011719 58.265625 45.1875 57.445312 46.863281 55.53125 C 47.21875 55.125 47.523438 54.625 47.6875 54.117188 C 47.933594 53.367188 47.574219 52.671875 46.953125 52.402344 Z M 46.953125 52.402344 " fill-opacity="1" fill-rule="nonzero"/><path fill="#ffffff" d="M 35.503906 44.996094 C 35.523438 42.769531 33.808594 41.015625 31.605469 41.003906 C 29.515625 40.996094 27.761719 42.757812 27.746094 44.878906 C 27.730469 47.164062 29.363281 48.855469 31.59375 48.867188 C 33.785156 48.875 35.484375 47.195312 35.503906 44.996094 Z M 35.503906 44.996094 " fill-opacity="1" fill-rule="nonzero"/></g></g></svg>